<?xml version="1.0" encoding="utf-8"?>
<svg id="ICON" xmlns="http://www.w3.org/2000/svg" viewBox="0 0 168 128"><title>logo-generator</title><g id="logo-generator"><path d="M167.652,48.873A2,2,0,0,0,166.125,48l-15.465-.967c-.262-2.6-.49-4.178-.512-4.33a2,2,0,0,0-1.793-1.7c-.073-.007-1.8-.166-4.779-.407a64.009,64.009,0,0,0-119.135-.043c-2.976.237-4.7.393-4.776.4a2,2,0,0,0-1.8,1.7c-.023.154-.255,1.751-.522,4.382L1.876,48A2,2,0,0,0,.1,50.611L6.915,71.836,1.069,93.479A2,2,0,0,0,3,96c.055,0,.11,0,.166-.007l24-2a1.835,1.835,0,0,0,.266-.062A64.343,64.343,0,0,0,84,128a63.474,63.474,0,0,0,26.835-5.881,2,2,0,0,0-1.679-3.631A59.485,59.485,0,0,1,84,124,60.281,60.281,0,0,1,28.312,86.35C39.924,85.452,62.1,84,84,84c3.644,0,7.452.039,11.319.117h.041a2,2,0,0,0,.039-4C91.505,80.04,87.67,80,84,80c-27.285,0-54.987,2.239-62.415,2.886A164.849,164.849,0,0,1,21.622,44.8C28.492,44.22,56.465,42,84,42s55.522,2.258,62.393,2.851A166.426,166.426,0,0,1,147.5,64a167.2,167.2,0,0,1-1.07,18.839c-4-.344-13.886-1.144-26.325-1.8a2,2,0,1,0-.21,3.994c7.944.42,14.834.9,19.8,1.277A59.652,59.652,0,0,1,127.811,105a2,2,0,1,0,2.919,2.734,63.818,63.818,0,0,0,9.843-13.8,1.935,1.935,0,0,0,.261.06l24,2c.056.005.111.007.166.007a2,2,0,0,0,1.931-2.521l-5.846-21.643L167.9,50.611A2,2,0,0,0,167.652,48.873ZM5.674,91.771l5.257-19.462a2,2,0,0,0-.027-1.133L4.69,51.836l12.3-.769C16.725,54.6,16.5,59.031,16.5,64a159.151,159.151,0,0,0,1.369,21.345,1.991,1.991,0,0,0,.558,1.1c.012.012.013.024.027.036l4,3.888ZM28.91,40.217a60.008,60.008,0,0,1,110.2.038C127.2,39.364,105.473,38,84,38S40.813,39.341,28.91,40.217ZM157.1,71.176a2,2,0,0,0-.027,1.133l5.257,19.462-16.781-1.4,4-3.888a.592.592,0,0,0,.121-.159,1.991,1.991,0,0,0,.481-1.032A159.864,159.864,0,0,0,151.5,64c0-4.977-.223-9.407-.488-12.933l12.3.769Zm-35.4,33.151,6.4-2.891a2,2,0,0,0,.5-3.324l-23.035-20.3a2,2,0,0,0-3.322,1.5l.011,30.7a2,2,0,0,0,2.823,1.822l6.391-2.887,5.954,13.188a2,2,0,0,0,2.646,1l6.582-2.972a2,2,0,0,0,1-2.646Zm-1.451,14.336-5.954-13.187a2,2,0,0,0-2.646-1l-5.392,2.435-.008-23.172,17.386,15.325-5.4,2.44a2,2,0,0,0-1,2.646l5.954,13.187Z" style="fill:#001b41"/><path d="M37.146,75.22a1.5,1.5,0,0,1-1.5-1.432L34.577,50.353a1.5,1.5,0,0,1,1.429-1.567q2.721-.126,5.44-.235a1.484,1.484,0,0,1,1.559,1.438l.711,17.5q3.915-.153,7.829-.277a1.429,1.429,0,0,1,1.074.405,1.5,1.5,0,0,1,.473,1.046l.14,4.446a1.5,1.5,0,0,1-1.451,1.547c-4.742.15-9.642.339-14.566.564Zm.5-23.5.935,20.439c3.916-.174,7.808-.324,11.61-.45l-.046-1.447q-3.9.129-7.8.288a1.5,1.5,0,0,1-1.559-1.439l-.711-17.5ZM66.566,74.721c-7.227,0-12.033-5.263-12.271-13.48h0c-.124-4.271,1.061-7.84,3.427-10.318A11.9,11.9,0,0,1,66.358,47.4a11.917,11.917,0,0,1,8.744,3.23c2.455,2.4,3.765,5.924,3.788,10.19.045,8.32-4.69,13.777-12.062,13.9ZM66.622,50.4H66.41A8.963,8.963,0,0,0,59.892,53c-1.8,1.886-2.7,4.707-2.6,8.158h0c.191,6.617,3.811,10.618,9.482,10.566,5.658-.1,9.15-4.267,9.114-10.886-.019-3.446-1.016-6.234-2.885-8.061A8.888,8.888,0,0,0,66.622,50.4Zm.007,19.745c-4.024,0-6.7-3.536-6.826-9.046-.073-3.134.709-5.643,2.259-7.256a6.067,6.067,0,0,1,4.375-1.862,6.238,6.238,0,0,1,4.438,1.711c1.6,1.559,2.47,4.04,2.506,7.173h0c.064,5.569-2.539,9.21-6.632,9.279Zm-.072-15.165h-.069a3.089,3.089,0,0,0-2.263.94c-.97,1.01-1.475,2.824-1.423,5.109.068,2.964,1.113,6.115,3.835,6.115H66.7c2.769-.046,3.718-3.256,3.683-6.244h0c-.026-2.285-.593-4.081-1.6-5.057A3.081,3.081,0,0,0,66.557,54.976ZM96.05,74.625H95.9c-7.88-.085-12.982-5.417-13-13.584h0a13.789,13.789,0,0,1,3.86-10.106A12.893,12.893,0,0,1,96.13,47.3a11.93,11.93,0,0,1,8.59,3.6,1.5,1.5,0,0,1,.06,2.036q-1.457,1.672-2.905,3.349a1.5,1.5,0,0,1-1.054.518,1.56,1.56,0,0,1-1.1-.4,4.753,4.753,0,0,0-3.488-1.523,4.468,4.468,0,0,0-3.168,1.206,6.591,6.591,0,0,0-1.657,4.79c-.025,6.116,3.847,6.159,5.12,6.173a4.606,4.606,0,0,0,1-.116l.022-1.622-2.421-.026a1.5,1.5,0,0,1-1.485-1.515l.042-4.329a1.5,1.5,0,0,1,1.5-1.485H95.2q4.369.042,8.736.122a1.5,1.5,0,0,1,1.473,1.527l-.2,10.815a1.494,1.494,0,0,1-.472,1.065A12.887,12.887,0,0,1,96.05,74.625ZM95.969,50.3a9.957,9.957,0,0,0-7.1,2.764A10.875,10.875,0,0,0,85.9,61.034h0c.013,6.466,3.856,10.524,10.03,10.59h.127a10.258,10.258,0,0,0,6.175-1.934l.156-8.637q-2.856-.05-5.711-.08L96.661,62.3q1.216.014,2.433.03a1.5,1.5,0,0,1,1.479,1.521l-.055,4.049a1.5,1.5,0,0,1-.588,1.17,5.775,5.775,0,0,1-3.437.978c-5.164-.057-8.112-3.405-8.088-9.185a9.492,9.492,0,0,1,2.551-6.916,7.247,7.247,0,0,1,5.307-2.068,7.356,7.356,0,0,1,4.3,1.342l.981-1.132A9.043,9.043,0,0,0,96.1,50.3Zm26.188,24.929c-.175,0-.351,0-.529-.01-7.369-.262-12-5.8-11.807-14.118h0c.1-4.273,1.474-7.775,3.968-10.124a12.87,12.87,0,0,1,17.372.622c2.325,2.525,3.447,6.113,3.246,10.374C134.024,70.08,129.237,75.228,122.157,75.228ZM112.82,61.17c-.156,6.615,3.26,10.849,8.915,11.05s9.363-3.781,9.675-10.39c.163-3.443-.687-6.279-2.456-8.2a9.893,9.893,0,0,0-13.108-.471c-1.9,1.788-2.944,4.56-3.026,8.014Zm9.218,9.476c-.082,0-.165,0-.248,0-4.09-.146-6.626-3.834-6.461-9.4.093-3.133,1.005-5.6,2.638-7.127a6.331,6.331,0,0,1,8.809.314c1.52,1.641,2.255,4.164,2.126,7.3h0C128.678,67.176,125.994,70.646,122.038,70.646Zm.146-15.164a3.061,3.061,0,0,0-2.166.823c-1.022.957-1.622,2.743-1.69,5.027-.089,2.986.8,6.212,3.569,6.311,2.8.138,3.886-3.055,4.008-6.041h0c.094-2.284-.378-4.107-1.33-5.135a3.1,3.1,0,0,0-2.247-.982Z" style="fill:#0b9dcc"/></g></svg>