<svg height="496pt" viewBox="0 -40 496 496" width="496pt" xmlns="http://www.w3.org/2000/svg"><path d="m120 272v104h96v-128h-192v128h96zm-48 80" fill="#c49a6c"/><path d="m216 248h16v-32h-224v32zm0 0" fill="#8b5e3c"/><path d="m232 376h-224v32h224zm0 0" fill="#8b5e3c"/><path d="m248 168h96v-128h-192v128zm-48-120" fill="#c49a6c"/><path d="m344 40h16v-32h-224v32zm0 0" fill="#8b5e3c"/><path d="m152 168h-16v32h224v-32zm0 0" fill="#8b5e3c"/><path d="m424 352v-104h-144v128h192v-128h-48zm-96 0" fill="#c49a6c"/><path d="m264 248h224v-32h-224zm0 0" fill="#8b5e3c"/><path d="m280 376h-16v32h224v-32zm0 0" fill="#8b5e3c"/><path d="m496 256v-48h-128v-48h-16v-112h16v-48h-240v48h16v112h-16v48h-128v48h16v112h-16v48h240v-48h-16v-112h16v-48h16v48h16v112h-16v48h240v-48h-16v-112zm-272 144h-208v-16h208zm-16-32h-80v-96h-16v96h-80v-112h32v96h16v-96h80v96h16v-96h32zm16-128h-208v-16h208zm-80-224h208v16h-208zm16 32h32v96h16v-96h80v96h16v-96h32v112h-80v-96h-16v96h-80zm-16 144v-16h208v16zm128 32h208v16h-208zm208 176h-208v-16h208zm-16-32h-80v-96h-16v96h-80v-112h32v96h16v-96h80v96h16v-96h32zm0 0" fill="#231f20"/></svg>