<svg height="479pt" viewBox="-71 0 479 479.99668" width="479pt" xmlns="http://www.w3.org/2000/svg"><path d="m280.5 87.996094h-272v384h320v-384zm0 0" fill="#9bc9ff"/><g fill="#1e81ce"><path d="m328.5 79.996094h-40v-72c-.003906-2.519532-1.191406-4.890625-3.210938-6.402344-2.015624-1.5078125-4.628906-1.980469-7.046874-1.269531l-272 80c-.160157 0-.28125.160156-.441407.214843-.40625.167969-.800781.363282-1.175781.59375-.480469.257813-.9375.566407-1.359375.917969-.308594.289063-.597656.601563-.863281.929688-.351563.425781-.660156.882812-.921875 1.367187-.1875.375-.347657.761719-.476563 1.160156-.1875.5625-.304687 1.144532-.355468 1.738282 0 .261718-.148438.488281-.148438.75v384c0 4.417968 3.578125 8 8 8h320c4.417969 0 8-3.582032 8-8v-384c0-4.417969-3.582031-8-8-8zm-56-61.3125v61.3125h-208.449219zm48 445.3125h-304v-368h304zm0 0"/><path d="m114.632812 128.285156c-3.460937-.957031-7.140624.511719-8.992187 3.589844l-17.140625 28.570312-17.144531-28.570312c-1.851563-3.078125-5.53125-4.546875-8.996094-3.585938-3.460937.960938-5.859375 4.113282-5.859375 7.707032v64c0 4.417968 3.578125 8 8 8 4.417969 0 8-3.582032 8-8v-35.121094l9.140625 15.242188c1.550781 2.261718 4.117187 3.613281 6.859375 3.613281 2.738281 0 5.304688-1.351563 6.855469-3.613281l9.144531-15.242188v35.121094c0 4.417968 3.578125 8 8 8 4.417969 0 8-3.582032 8-8v-64c0-3.597656-2.398438-6.75-5.867188-7.710938zm0 0"/><path d="m160.5 143.996094c4.417969 0 8-3.582032 8-8 0-4.417969-3.582031-8-8-8h-24c-4.421875 0-8 3.582031-8 8v64c0 4.417968 3.578125 8 8 8h24c4.417969 0 8-3.582032 8-8 0-4.417969-3.582031-8-8-8h-16v-16h16c4.417969 0 8-3.582032 8-8 0-4.417969-3.582031-8-8-8h-16v-16zm0 0"/><path d="m216.5 127.996094c-4.421875 0-8 3.582031-8 8v30.113281l-16.800781-33.6875c-1.632813-3.371094-5.386719-5.160156-9.035157-4.300781-3.644531.855468-6.207031 4.128906-6.164062 7.875v64c0 4.417968 3.578125 8 8 8 4.417969 0 8-3.582032 8-8v-30.113282l16.796875 33.691407c1.632813 3.371093 5.386719 5.15625 9.035156 4.300781 3.644531-.859375 6.207031-4.132812 6.167969-7.878906v-64c0-4.417969-3.582031-8-8-8zm0 0"/><path d="m256.5 207.996094c-13.257812 0-24-10.746094-24-24v-48c0-4.417969 3.578125-8 8-8 4.417969 0 8 3.582031 8 8v48c0 4.417968 3.578125 8 8 8 4.417969 0 8-3.582032 8-8v-48c0-4.417969 3.578125-8 8-8 4.417969 0 8 3.582031 8 8v48c0 13.253906-10.746094 24-24 24zm0 0"/><path d="m296.5 295.996094h-256c-4.421875 0-8-3.582032-8-8 0-4.417969 3.578125-8 8-8h256c4.417969 0 8 3.582031 8 8 0 4.417968-3.582031 8-8 8zm0 0"/><path d="m296.5 343.996094h-256c-4.421875 0-8-3.582032-8-8 0-4.417969 3.578125-8 8-8h256c4.417969 0 8 3.582031 8 8 0 4.417968-3.582031 8-8 8zm0 0"/><path d="m296.5 391.996094h-256c-4.421875 0-8-3.582032-8-8 0-4.417969 3.578125-8 8-8h256c4.417969 0 8 3.582031 8 8 0 4.417968-3.582031 8-8 8zm0 0"/></g></svg>