<svg id="Layer_1" enable-background="new 0 0 512.015 512.015" height="512" viewBox="0 0 512.015 512.015" width="512" xmlns="http://www.w3.org/2000/svg"><g><path d="m11.007 399.008v97.999c0 8.284 6.716 15 15 15h64l173.298-46.105 161.702 46.105h64c8.284 0 15-6.716 15-15v-97.999z" fill="#fff4f4"/><path d="m256.007 399.008v68.835l7.298-1.942 161.702 46.105h64c8.284 0 15-6.716 15-15v-97.999h-248z" fill="#f6efea"/><g><path d="m355.007 403.008h-198c-8.284 0-15-6.716-15-15v-62.999c0-33.251 23.642-61.085 54.998-67.573 4.523-.936 59.001 53.913 59.001 53.913s54.4-54.857 58.888-53.936c31.413 6.445 55.112 34.306 55.112 67.597v62.999c.001 8.283-6.714 14.999-14.999 14.999z" fill="#ff4949"/></g><path d="m314.895 257.412c-4.488-.921-58.888 53.936-58.888 53.936v91.66h99c8.284 0 15-6.716 15-15v-62.999c0-33.291-23.699-61.152-55.112-67.597z" fill="#ff193d"/><g><path d="m46.007 397.009c-8.284 0-15-6.716-15-15v-301.001c0-8.284 6.716-15 15-15s15 6.716 15 15v301.001c0 8.284-6.715 15-15 15z" fill="#00429d"/></g><g><path d="m466.007 397.388c-8.284 0-15-6.716-15-15v-304.001c0-8.284 6.716-15 15-15s15 6.716 15 15v304.001c0 8.284-6.715 15-15 15z" fill="#00347b"/></g><g clip-rule="evenodd" fill-rule="evenodd"><path d="m16.05.008h48.74v69.104c0 17.769-14.54 32.754-32.307 32.512-17.33-.236-31.433-14.484-31.433-31.867v-54.749c0-8.284 6.716-15 15-15z" fill="#ff4949"/><path d="m64.79.008h63.74v69.749c0 17.528-14.341 31.87-31.87 31.87-17.528 0-31.87-14.341-31.87-31.87z" fill="#ffde46"/><path d="m128.529.008h63.74v69.749c0 17.528-14.341 31.87-31.87 31.87s-31.87-14.341-31.87-31.87z" fill="#ff4949"/><path d="m192.268.008h63.74v69.749c0 17.528-14.341 31.87-31.87 31.87s-31.87-14.341-31.87-31.87z" fill="#ffde46"/><path d="m256.008.008h63.74v69.749c0 17.528-14.341 31.87-31.87 31.87-17.528 0-31.87-14.341-31.87-31.87z" fill="#ff193d"/><path d="m319.747.008h63.74v69.749c0 17.528-14.341 31.87-31.87 31.87s-31.87-14.341-31.87-31.87z" fill="#ffcd00"/><path d="m383.485.008h63.74v69.749c0 17.528-14.341 31.87-31.87 31.87s-31.87-14.341-31.87-31.87z" fill="#ff193d"/><path d="m447.225.008h48.74c8.284 0 15 6.716 15 15v54.104c0 17.769-14.54 32.754-32.307 32.512-17.329-.236-31.432-14.484-31.432-31.867v-69.749z" fill="#ffcd00"/></g><path d="m212.007 346.009h88.001c8.284 0 15-6.716 15-15v-73.57c-4.523-.936-9.206-1.431-14.002-1.431h-89.999c-4.796 0-9.478.495-14.001 1.43v73.571c.001 8.284 6.717 15 15.001 15z" fill="#fff4f4"/><path d="m301.006 256.008h-44.999v90.001h44.001c8.284 0 15-6.716 15-15v-73.57c-4.523-.936-9.205-1.431-14.002-1.431z" fill="#f6efea"/><g><path d="m425.007 512.007h-335v-30.65c0-8.216 6.717-15.378 14.933-15.342 8.322.036 15.101-6.74 15.066-15.063-.034-8.218 7.131-14.937 15.349-14.937h244.305c8.218 0 15.382 6.718 15.347 14.936-.035 8.322 6.742 15.099 15.064 15.064 8.218-.035 14.936 7.129 14.936 15.347z" fill="#4793ff"/></g><g><path d="m497.015 406.01h-482.015c-8.284 0-15-6.716-15-15s6.716-15 15-15h482.015c8.284 0 15 6.716 15 15s-6.716 15-15 15z" fill="#4793ff"/></g><g><path d="m256.007 276.009c-37.495 0-68-30.505-68-68s30.505-68 68-68 68 30.505 68 68-30.505 68-68 68z" fill="#ffdecf"/></g><path d="m256.007 140.009v136c37.495 0 68-30.505 68-68s-30.505-68-68-68z" fill="#ffcdbe"/><path d="m497.015 376.01h-241.008v30h241.008c8.284 0 15-6.716 15-15s-6.716-15-15-15z" fill="#525cdd"/><path d="m410.072 466.016c-8.322.035-15.099-6.742-15.064-15.064.034-8.218-7.129-14.936-15.347-14.936h-123.654v75.991h169v-30.645c0-8.217-6.718-15.381-14.935-15.346z" fill="#525cdd"/></g></svg>